<svg width="80" height="80" viewBox="0 0 80 80" fill="none" xmlns="http://www.w3.org/2000/svg">
<path d="M13.5813 9.97917C13.7754 6.54554 14.5956 5.0524 16.9477 3.85337C19.4785 2.56283 23.4701 3.16341 28.1671 5.54187C30.1901 6.5668 30.3961 6.58767 33.9416 6.1331C38.6543 5.52867 44.7213 5.5308 49.0709 6.13864C52.3603 6.5983 52.5763 6.57534 54.6043 5.54827C61.2713 2.1721 66.5349 2.393 68.4409 6.12884C69.3923 7.99357 69.5689 12.8322 68.8313 16.823C68.4223 19.0355 68.4656 19.3117 69.4509 20.7636C76.3833 30.9793 71.3883 47.5385 59.5093 53.7182C58.6003 54.1912 57.8343 54.4838 57.2099 54.7222C55.2929 55.4542 54.7109 55.6765 55.4156 59.0458C55.7549 60.6665 56.1636 64.6958 56.3243 68.0005C56.6146 73.9738 56.6103 74.0155 55.5626 75.2342C54.1366 76.8918 52.0813 76.9198 50.6886 75.3005C49.7803 74.2445 49.6916 73.7458 49.6916 69.6715C49.6916 63.6505 49.0316 59.6485 47.4723 56.2192C45.6179 52.1382 46.9926 50.6165 51.2333 49.7045C57.1276 48.4365 61.7313 44.7988 64.2973 39.3818C66.7369 34.2325 67.1046 27.1165 62.6939 22.7888C61.4396 21.2982 61.3523 19.948 62.2479 15.8768C62.5826 14.3552 62.8633 12.3921 62.8716 11.514C62.8843 10.1273 62.7579 9.91787 61.9063 9.91787C61.3673 9.91787 59.3079 10.7019 57.3306 11.66L54.1746 13.1897C53.8876 13.3287 53.5666 13.3822 53.2499 13.3458C45.2249 12.4247 37.5996 12.4105 29.5353 13.3494C29.2175 13.3864 28.895 13.333 28.6071 13.1932L25.4528 11.6626C23.4752 10.7027 21.416 9.91787 20.8772 9.91787C19.6313 9.91787 19.6126 10.8377 20.7482 16.3024C21.4419 19.6399 21.9087 20.3836 19.9033 23.0522C16.8974 27.0524 16.1466 32.0196 17.7585 37.2385C19.7901 43.8152 24.7649 48.2582 31.759 49.7405C35.9753 50.6342 37.0773 51.8002 35.4673 56.6348C34.1999 60.4395 33.3986 61.4202 31.5568 61.4202C29.0788 61.4202 27.5265 59.2735 28.3807 57.0272C28.757 56.0372 28.6451 55.9315 26.3236 55.0848C19.2372 52.5012 13.8171 46.7102 11.339 39.0742C9.42363 33.1726 10.2664 25.4911 13.3391 20.8483C14.3853 19.2674 14.4015 19.1334 13.9133 16.1071C13.637 14.3939 13.4876 11.6366 13.5813 9.97917Z" fill="white"/>
<path d="M11.1067 53.1511C10.0855 51.6195 8.01595 51.2055 6.48419 52.2268C4.95245 53.2478 4.53852 55.3175 5.55969 56.8491C6.31359 57.9801 7.21549 58.9091 7.98139 59.6748C8.12259 59.8161 8.25979 59.9525 8.39375 60.0855C9.03532 60.7228 9.60179 61.2855 10.1707 61.9535C11.4291 63.4305 12.6845 65.4198 13.3979 68.9871C13.7157 70.5761 14.8579 71.4321 15.4908 71.8061C16.1771 72.2115 16.927 72.4505 17.5441 72.6061C18.8065 72.9245 20.3389 73.0898 21.7932 73.1861C23.3898 73.2921 25.1197 73.3264 26.6666 73.3358C26.6677 75.1754 28.1596 76.6668 29.9999 76.6668C31.8408 76.6668 33.3332 75.1744 33.3332 73.3334V70.0001C33.3332 68.1591 31.8408 66.6668 29.9999 66.6668C29.6856 66.6668 29.3457 66.6678 28.9856 66.6691C27.0294 66.6751 24.4795 66.6828 22.2339 66.5341C21.151 66.4625 20.2608 66.3608 19.608 66.2365C18.6027 62.2901 16.9787 59.6645 15.2457 57.6301C14.4796 56.7311 13.6864 55.9445 13.0411 55.3045C12.9203 55.1848 12.8047 55.0701 12.6954 54.9608C11.9509 54.2165 11.4639 53.6871 11.1067 53.1511Z" fill="white"/>
</svg>
