<svg width="80" height="80" viewBox="0 0 80 80" fill="none" xmlns="http://www.w3.org/2000/svg">
<path d="M21.6665 26.667C24.4279 26.667 26.6665 24.4284 26.6665 21.667C26.6665 18.9056 24.4279 16.667 21.6665 16.667C18.9051 16.667 16.6665 18.9056 16.6665 21.667C16.6665 24.4284 18.9051 26.667 21.6665 26.667Z" fill="#FFD944"/>
<path d="M16.6665 33.3333C16.6665 31.4924 18.1589 30 19.9998 30H23.3332C25.1741 30 26.6665 31.4924 26.6665 33.3333V60C26.6665 61.841 25.1741 63.3333 23.3332 63.3333H19.9998C18.1589 63.3333 16.6665 61.841 16.6665 60V33.3333Z" fill="#FFD944"/>
<path d="M36.6666 63.3333H39.9999C41.8409 63.3333 43.3333 61.841 43.3333 60V45C43.3333 40 53.3333 36.6667 53.3333 43.3333V60.0013C53.3333 61.8423 54.8256 63.3333 56.6666 63.3333H59.9999C61.8409 63.3333 63.3333 61.841 63.3333 60V40C63.3333 33.3333 58.3333 30 51.6666 30C44.9999 30 43.3333 35 43.3333 35V33.3333C43.3333 31.4924 41.8409 30 39.9999 30H36.6666C34.8256 30 33.3333 31.4924 33.3333 33.3333V60C33.3333 61.841 34.8256 63.3333 36.6666 63.3333Z" fill="#FFD944"/>
<path fill-rule="evenodd" clip-rule="evenodd" d="M66.6666 3.3335C72.1896 3.3335 76.6666 7.81066 76.6666 13.3335V66.6668C76.6666 72.1898 72.1896 76.6668 66.6666 76.6668H13.3333C7.81042 76.6668 3.33325 72.1898 3.33325 66.6668V13.3335C3.33325 7.81066 7.81042 3.3335 13.3333 3.3335H66.6666ZM66.6666 10.0002C68.5076 10.0002 69.9999 11.4926 69.9999 13.3335V66.6668C69.9999 68.5078 68.5076 70.0002 66.6666 70.0002H13.3333C11.4923 70.0002 9.99992 68.5078 9.99992 66.6668V13.3335C9.99992 11.4926 11.4923 10.0002 13.3333 10.0002H66.6666Z" fill="#FFD944"/>
</svg>
