<svg width="80" height="80" viewBox="0 0 80 80" fill="none" xmlns="http://www.w3.org/2000/svg">
<path fill-rule="evenodd" clip-rule="evenodd" d="M66.6666 13.3335C72.1896 13.3335 76.6666 17.8107 76.6666 23.3335V56.6668C76.6666 62.1898 72.1896 66.6668 66.6666 66.6668H13.3333C7.81042 66.6668 3.33325 62.1898 3.33325 56.6668V23.3335C3.33325 17.8107 7.81042 13.3335 13.3333 13.3335H66.6666ZM64.1762 20.0002H15.8239L37.9346 37.4558C39.1456 38.4122 40.8542 38.4122 42.0656 37.4558L64.1762 20.0002ZM9.99992 23.8962V56.6668C9.99992 58.5078 11.4923 60.0002 13.3333 60.0002H66.6666C68.5076 60.0002 69.9999 58.5078 69.9999 56.6668V23.8962L46.1962 42.6885C42.5632 45.5568 37.4366 45.5568 33.8036 42.6885L9.99992 23.8962Z" fill="white"/>
</svg>
